<?xml version="1.0" encoding="utf-8"?>
<!-- Generator: Adobe Illustrator 16.0.0, SVG Export Plug-In . SVG Version: 6.00 Build 0)  -->
<!DOCTYPE svg PUBLIC "-//W3C//DTD SVG 1.1//EN" "http://www.w3.org/Graphics/SVG/1.1/DTD/svg11.dtd">
<svg version="1.1" id="Layer_1" xmlns="http://www.w3.org/2000/svg" xmlns:xlink="http://www.w3.org/1999/xlink" x="0px" y="0px"
	 width="50px" height="500px" viewBox="0 0 50 500" enable-background="new 0 0 50 500" xml:space="preserve">
<g>
	<path id="Facebook" fill="#F2F2F2" d="M21.688,17.342c0,0.63,0,3.441,0,3.441h-2.521v4.209h2.521V37.5h5.18V24.994h3.478
		c0,0,0.326-2.019,0.483-4.226c-0.453,0-3.94,0-3.94,0s0-2.448,0-2.877c0-0.43,0.565-1.008,1.123-1.008c0.559,0,1.733,0,2.823,0
		c0-0.573,0-2.552,0-4.382c-1.454,0-3.106,0-3.837,0C21.561,12.5,21.688,16.713,21.688,17.342z"/>
</g>
<path fill="#F2F2F2" d="M29.751,136.312v-4.388c0-1.344-0.36-2.331-1.082-2.954c0.791-0.083,1.501-0.208,2.133-0.375
	c0.632-0.166,1.282-0.436,1.955-0.813c0.677-0.372,1.234-0.835,1.685-1.382c0.451-0.546,0.817-1.273,1.104-2.182
	c0.282-0.91,0.427-1.954,0.427-3.131c0-1.679-0.549-3.107-1.645-4.285c0.513-1.264,0.458-2.676-0.166-4.244
	c-0.391-0.124-0.95-0.049-1.686,0.228c-0.734,0.277-1.371,0.582-1.914,0.916l-0.789,0.5c-1.291-0.362-2.623-0.538-3.994-0.538
	s-2.702,0.179-3.991,0.538c-0.223-0.153-0.518-0.339-0.885-0.562c-0.367-0.223-0.947-0.49-1.737-0.803
	c-0.79-0.311-1.387-0.403-1.788-0.28c-0.61,1.568-0.659,2.98-0.147,4.244c-1.095,1.178-1.643,2.606-1.643,4.285
	c0,1.177,0.143,2.217,0.427,3.119c0.284,0.901,0.648,1.628,1.091,2.184c0.444,0.554,1.003,1.021,1.675,1.393
	c0.672,0.375,1.324,0.643,1.955,0.813c0.632,0.167,1.342,0.293,2.133,0.374c-0.555,0.5-0.894,1.213-1.02,2.143
	c-0.292,0.138-0.603,0.242-0.936,0.313c-0.333,0.068-0.729,0.103-1.185,0.103c-0.457,0-0.911-0.151-1.362-0.447
	c-0.451-0.297-0.835-0.731-1.155-1.302c-0.263-0.441-0.599-0.804-1.008-1.081c-0.409-0.278-0.752-0.444-1.03-0.5l-0.416-0.063
	c-0.292,0-0.493,0.03-0.604,0.092c-0.111,0.062-0.146,0.143-0.104,0.239c0.042,0.097,0.104,0.193,0.188,0.291
	c0.083,0.097,0.173,0.181,0.27,0.251l0.146,0.104c0.305,0.138,0.607,0.401,0.905,0.789c0.298,0.389,0.517,0.743,0.655,1.061
	l0.208,0.478c0.18,0.526,0.485,0.953,0.915,1.277c0.43,0.327,0.895,0.535,1.394,0.625c0.5,0.088,0.981,0.138,1.445,0.146
	c0.466,0.006,0.85-0.018,1.154-0.073l0.479-0.083c0,0.527,0.003,1.144,0.012,1.853c0.006,0.708,0.01,1.082,0.01,1.125
	c0,0.249-0.09,0.457-0.27,0.621c0,0.002,0,0.002,0,0.002c1.345,0.367,2.761,0.567,4.222,0.567c1.466,0,2.884-0.198,4.231-0.569
	C29.837,136.769,29.751,136.562,29.751,136.312z"/>
<g>
	<path id="Shape" fill="#F2F2F2" d="M25.248,73.214v4.287h7.093c-0.286,1.837-2.147,5.393-7.093,5.393
		c-4.269,0-7.75-3.537-7.75-7.893s3.48-7.893,7.75-7.893c2.429,0,4.057,1.036,4.982,1.928l3.393-3.269
		c-2.176-2.036-4.997-3.268-8.375-3.268C18.338,62.501,12.749,68.091,12.749,75s5.589,12.5,12.499,12.5
		c7.216,0,12.003-5.072,12.003-12.214c0-0.821-0.091-1.447-0.198-2.072H25.248L25.248,73.214z"/>
</g>
<g>
	<g>
		<path fill="#F2F2F2" d="M37.5,167.249c-0.919,0.408-1.907,0.685-2.943,0.809c1.06-0.634,1.869-1.641,2.254-2.835
			c-0.992,0.587-2.09,1.013-3.259,1.245c-0.936-0.999-2.268-1.621-3.743-1.621c-2.83,0-5.126,2.297-5.126,5.127
			c0,0.402,0.045,0.793,0.133,1.168c-4.262-0.214-8.041-2.256-10.571-5.358c-0.442,0.757-0.694,1.638-0.694,2.578
			c0,1.78,0.906,3.35,2.281,4.269c-0.841-0.028-1.631-0.259-2.324-0.644v0.064c0,2.483,1.769,4.557,4.114,5.029
			c-0.43,0.116-0.883,0.179-1.352,0.179c-0.331,0-0.65-0.033-0.965-0.095c0.652,2.039,2.546,3.521,4.79,3.562
			c-1.754,1.375-3.967,2.191-6.37,2.191c-0.414,0-0.821-0.025-1.223-0.07c2.27,1.458,4.965,2.308,7.862,2.308
			c9.434,0,14.591-7.814,14.591-14.592l-0.019-0.663C35.941,169.18,36.814,168.277,37.5,167.249z"/>
	</g>
</g>
<g>
	<path id="LinkedIn" fill="#F2F2F2" d="M37.5,227.702v9.243h-5.357v-8.625c0-2.167-0.775-3.645-2.716-3.645
		c-1.479,0-2.36,0.996-2.749,1.96c-0.143,0.345-0.18,0.825-0.18,1.307v9.002h-5.359c0,0,0.071-14.605,0-16.119H26.5v2.285
		c-0.012,0.017-0.025,0.035-0.036,0.052H26.5v-0.052c0.712-1.097,1.982-2.664,4.83-2.664C34.855,220.447,37.5,222.75,37.5,227.702z
		 M15.534,213.056c-1.833,0-3.034,1.203-3.034,2.784c0,1.548,1.164,2.787,2.962,2.787h0.036c1.869,0,3.032-1.239,3.032-2.787
		C18.494,214.258,17.367,213.056,15.534,213.056z M12.818,236.944h5.358v-16.119h-5.358V236.944z"/>
</g>
<g>
	<path fill="#F2F2F2" d="M12.509,274.167L12.5,266.04l10-1.358v9.485H12.509z M24.167,264.439l13.331-1.939v11.667H24.167V264.439z
		 M37.5,275.833L37.497,287.5l-13.331-1.875v-9.792H37.5z M22.5,285.412l-9.992-1.369v-8.211H22.5V285.412z"/>
</g>
<g>
	<g>
		<path fill="#F2F2F2" d="M29.093,468.757h1.917l-1.313,7.421c-0.146,0.857-0.151,1.479-0.016,1.862
			c0.139,0.383,0.443,0.574,0.918,0.574c0.476,0,0.939-0.109,1.396-0.328c0.456-0.219,0.865-0.558,1.23-1.013
			c0.366-0.457,0.662-1.031,0.892-1.726c0.228-0.693,0.343-1.515,0.343-2.465c0-1.369-0.229-2.538-0.686-3.505
			s-1.082-1.768-1.875-2.396c-0.795-0.629-1.73-1.091-2.809-1.383s-2.234-0.438-3.479-0.438c-1.422,0-2.746,0.255-3.969,0.767
			s-2.286,1.215-3.19,2.108c-0.903,0.895-1.611,1.958-2.122,3.189c-0.511,1.232-0.767,2.568-0.767,4.013
			c0,1.424,0.214,2.7,0.643,3.832c0.429,1.134,1.055,2.096,1.876,2.891c0.821,0.794,1.839,1.405,3.053,1.834
			c1.213,0.429,2.606,0.643,4.176,0.643c0.529,0,1.13-0.063,1.807-0.189c0.676-0.129,1.287-0.32,1.835-0.575l0.85,2.629
			c-0.748,0.365-1.512,0.62-2.287,0.766c-0.775,0.146-1.666,0.221-2.668,0.221c-1.771,0-3.41-0.256-4.916-0.768
			c-1.506-0.512-2.811-1.269-3.915-2.271c-1.105-1.004-1.967-2.25-2.588-3.738c-0.62-1.487-0.93-3.208-0.93-5.161
			c0-1.989,0.356-3.788,1.068-5.395c0.711-1.605,1.67-2.976,2.875-4.107s2.601-2.003,4.189-2.615
			c1.588-0.61,3.267-0.917,5.038-0.917c1.68,0,3.24,0.242,4.684,0.727c1.44,0.483,2.69,1.177,3.75,2.081
			c1.059,0.902,1.891,2.009,2.492,3.313c0.604,1.305,0.903,2.788,0.903,4.448c0,1.169-0.205,2.264-0.616,3.286
			c-0.41,1.022-0.977,1.908-1.697,2.656c-0.722,0.748-1.561,1.342-2.519,1.779c-0.958,0.438-1.985,0.656-3.081,0.656
			c-0.457,0-0.88-0.049-1.273-0.149c-0.393-0.102-0.721-0.271-0.984-0.507c-0.266-0.237-0.461-0.548-0.59-0.932
			c-0.127-0.383-0.164-0.857-0.108-1.424h-0.108c-0.274,0.384-0.57,0.758-0.891,1.122c-0.32,0.366-0.67,0.688-1.054,0.973
			c-0.383,0.283-0.804,0.507-1.259,0.671c-0.457,0.164-0.958,0.246-1.506,0.246c-0.438,0-0.858-0.096-1.259-0.286
			c-0.402-0.191-0.749-0.462-1.041-0.809c-0.293-0.347-0.525-0.768-0.698-1.26c-0.174-0.493-0.261-1.041-0.261-1.644
			c0-1.132,0.182-2.231,0.547-3.3c0.365-1.068,0.863-2.013,1.493-2.834c0.63-0.821,1.36-1.482,2.19-1.985
			c0.831-0.501,1.712-0.752,2.642-0.752c0.64,0,1.179,0.096,1.615,0.286c0.438,0.192,0.84,0.443,1.205,0.754L29.093,468.757z
			 M27.367,472.071c-0.236-0.201-0.483-0.356-0.738-0.466c-0.256-0.11-0.574-0.164-0.959-0.164c-0.547,0-1.053,0.153-1.519,0.465
			c-0.466,0.311-0.868,0.712-1.205,1.205c-0.338,0.491-0.598,1.046-0.781,1.655c-0.182,0.612-0.274,1.21-0.274,1.794
			c0,0.604,0.124,1.097,0.37,1.479c0.247,0.382,0.671,0.574,1.273,0.574c0.255,0,0.53-0.077,0.821-0.232
			c0.292-0.155,0.575-0.359,0.85-0.616c0.274-0.255,0.538-0.548,0.794-0.876c0.256-0.329,0.483-0.676,0.685-1.04L27.367,472.071z"/>
	</g>
</g>
<g>
	<path fill="#F2F2F2" d="M36.897,335.565l-7.7-3.702l-0.059-16.779c0-0.392,0.408-0.649,0.761-0.479l7.3,3.51
		c0.184,0.088,0.301,0.274,0.301,0.479v16.593C37.5,335.496,37.177,335.699,36.897,335.565z"/>
	<path fill="#DDDDDD" d="M29.197,331.863l-8.333-4.007l8.023-13.208c0.142-0.233,0.438-0.321,0.684-0.203l7.401,3.561
		c0.282,0.136,0.387,0.485,0.224,0.753L29.197,331.863z"/>
	<path fill="#C6C6C6" d="M29.197,331.863l-8.333-4.007l-7.638-12.438c-0.213-0.347,0.158-0.757,0.524-0.581l7.114,3.421
		L29.197,331.863z"/>
	<path fill="#AFAFAF" d="M20.261,335.565l-7.522-3.618c-0.146-0.07-0.238-0.218-0.238-0.379v-16.684c0-0.3,0.313-0.497,0.584-0.367
		l7.779,3.741v16.927C20.864,335.496,20.54,335.699,20.261,335.565z"/>
</g>
</svg>
