<?xml version="1.0" encoding="utf-8"?>
<!-- Generator: Adobe Illustrator 16.0.0, SVG Export Plug-In . SVG Version: 6.00 Build 0)  -->
<!DOCTYPE svg PUBLIC "-//W3C//DTD SVG 1.1//EN" "http://www.w3.org/Graphics/SVG/1.1/DTD/svg11.dtd">
<svg version="1.1" id="Layer_1" xmlns="http://www.w3.org/2000/svg" xmlns:xlink="http://www.w3.org/1999/xlink" x="0px" y="0px"
	 width="250px" height="250px" viewBox="0 0 250 250" enable-background="new 0 0 250 250" xml:space="preserve">
<g>
	<path fill="#F2F5F7" stroke="#F2F5F7" stroke-miterlimit="10" d="M179.478,62.27c-8.222,2.059-13.713,9.605-15.774,17.832
		c-10.973-8.234-24.002-13.035-38.405-13.035c-14.401,0-27.436,5.488-38.41,13.035c-2.06-8.922-7.544-15.773-15.773-17.834
		c-12.347-3.432-24.697,5.486-28.809,19.197c-4.112,13.721,2.745,27.441,15.089,30.873c0.69,0,1.372,0,2.06,0
		c-3.43,8.229-5.487,17.146-5.487,25.38c0,33.6,31.553,50.75,70.646,50.75c39.088,0,70.646-17.141,70.646-50.75
		c0-8.242-2.058-17.152-5.491-25.38c0.689,0,1.373,0,2.063,0c12.348-3.432,19.211-17.152,16.453-30.871
		C204.168,67.754,191.824,58.836,179.478,62.27z M112.267,123.305c0,13.039-9.602,23.324-19.886,23.318
		c-11.662,0-20.579-1.375-20.579-13.713c0-13.035,18.516-32.234,30.181-32.234C113.64,100.676,112.267,110.961,112.267,123.305z
		 M124.613,157.598c-5.487,0-10.287-5.479-10.287-8.91c0-3.434,4.8-6.18,10.287-6.18c5.487,0,10.283,2.746,10.283,6.18
		C134.896,152.119,130.101,157.598,124.613,157.598z M157.545,145.947c-11.665,0-20.576-10.285-20.576-22.642
		c0-12.342-0.691-22.629,10.284-22.629c11.655,0,30.864,19.199,30.874,31.55C178.127,144.572,168.519,145.947,157.545,145.947z"/>
	<path fill="#F2F5F7" stroke="#F2F5F7" stroke-miterlimit="10" d="M97.866,117.817c-3.433,0-6.175,2.75-6.175,6.172
		c0,3.433,2.748,6.183,6.175,6.183c3.426,0,6.171-2.75,6.175-6.183C104.041,120.555,101.293,117.817,97.866,117.817z"/>
	<path fill="#F2F5F7" stroke="#F2F5F7" stroke-miterlimit="10" d="M151.363,117.817c-3.43,0-6.174,2.75-6.174,6.172
		c0,3.433,2.748,6.183,6.174,6.183c3.428,0,6.176-2.75,6.176-6.183C157.539,120.555,154.794,117.817,151.363,117.817z"/>
</g>
</svg>
