<?xml version="1.0" encoding="utf-8"?>
<!-- Generator: Adobe Illustrator 16.0.0, SVG Export Plug-In . SVG Version: 6.00 Build 0)  -->
<!DOCTYPE svg PUBLIC "-//W3C//DTD SVG 1.1//EN" "http://www.w3.org/Graphics/SVG/1.1/DTD/svg11.dtd">
<svg version="1.1" id="Layer_1" xmlns="http://www.w3.org/2000/svg" xmlns:xlink="http://www.w3.org/1999/xlink" x="0px" y="0px"
	 width="250px" height="250px" viewBox="0 0 250 250" enable-background="new 0 0 250 250" xml:space="preserve">
<g>
	<g>
		<g>
			<path fill="#231F20" stroke="#231F20" stroke-miterlimit="10" d="M124.936,157.296c5.487,0,10.283-5.479,10.283-8.911
				c0-3.434-4.796-6.179-10.283-6.179s-10.287,2.745-10.287,6.179C114.649,151.816,119.448,157.296,124.936,157.296z"/>
			<path fill="#231F20" stroke="#231F20" stroke-miterlimit="10" d="M112.589,123.003c0-12.344,1.373-22.63-10.284-22.63
				c-11.665,0-30.181,19.198-30.181,32.235c0,12.337,8.917,13.713,20.579,13.713C102.987,146.327,112.589,136.04,112.589,123.003z
				 M98.188,129.869c-3.427,0-6.175-2.751-6.175-6.184c0-3.421,2.742-6.172,6.175-6.172c3.427,0,6.175,2.74,6.175,6.172
				C104.359,127.118,101.614,129.869,98.188,129.869z"/>
			<path fill="#231F20" stroke="#231F20" stroke-miterlimit="10" d="M147.575,100.373c-10.976,0-10.284,10.287-10.284,22.63
				c0,12.356,8.911,22.642,20.576,22.642c10.974,0,20.582-1.375,20.582-13.72C178.439,119.571,159.231,100.373,147.575,100.373z
				 M151.686,129.869c-3.426,0-6.175-2.751-6.175-6.184c0-3.421,2.745-6.172,6.175-6.172s6.176,2.74,6.176,6.172
				C157.861,127.118,155.113,129.869,151.686,129.869z"/>
			<path fill="#231F20" stroke="#231F20" stroke-miterlimit="10" d="M125,25.002C69.573,25.002,25,69.575,25,125
				c0,55.435,44.575,99.997,100,99.997c55.432,0,100-44.567,100-99.997C225,69.575,180.435,25.002,125,25.002z M192.153,112.035
				c-0.69,0-1.373,0-2.063,0c3.433,8.229,5.491,17.14,5.491,25.382c0,33.609-31.557,50.749-70.646,50.749
				c-39.092,0-70.645-17.151-70.645-50.749c0-8.236,2.057-17.153,5.487-25.382c-0.688,0-1.37,0-2.06,0
				c-12.344-3.433-19.201-17.152-15.089-30.872c4.112-13.713,16.462-22.63,28.809-19.198C79.666,64.024,85.15,70.877,87.21,79.8
				c10.974-7.548,24.009-13.038,38.41-13.038c14.403,0,27.433,4.802,38.406,13.038c2.061-8.229,7.552-15.776,15.774-17.834
				c12.347-3.433,24.69,5.485,28.806,19.198C211.363,94.883,204.5,108.602,192.153,112.035z"/>
		</g>
	</g>
</g>
</svg>
